<?xml version="1.0" encoding="UTF-8"?>
<!DOCTYPE svg PUBLIC "-//W3C//DTD SVG 1.1//EN" "http://www.w3.org/Graphics/SVG/1.1/DTD/svg11.dtd">
<svg xmlns="http://www.w3.org/2000/svg" version="1.1" width="6250px" height="6250px" style="shape-rendering:geometricPrecision; text-rendering:geometricPrecision; image-rendering:optimizeQuality; fill-rule:evenodd; clip-rule:evenodd" xmlns:xlink="http://www.w3.org/1999/xlink">
<g><path style="opacity:0.994" fill="#0c4a4c" d="M 2714.5,1018.5 C 2987.83,1018.5 3261.17,1018.5 3534.5,1018.5C 3534.33,1136.17 3534.5,1253.83 3535,1371.5C 3711.79,1413.66 3878.29,1480.83 4034.5,1573C 4035.5,1573.67 4036.5,1573.67 4037.5,1573C 4118.65,1487.68 4199.98,1402.52 4281.5,1317.5C 4479.8,1505.8 4677.8,1694.47 4875.5,1883.5C 4793.17,1970.17 4710.83,2056.83 4628.5,2143.5C 4717.17,2280.85 4786,2427.85 4835,2584.5C 4954.74,2574.87 5074.57,2565.87 5194.5,2557.5C 5214.94,2830.16 5235.27,3102.83 5255.5,3375.5C 5134.11,3384.17 5012.77,3393.5 4891.5,3403.5C 4859.85,3596.94 4798.19,3780.11 4706.5,3953C 4799.15,4033.64 4891.81,4114.31 4984.5,4195C 4805.5,4401.33 4626.5,4607.67 4447.5,4814C 4446.83,4814.67 4446.17,4814.67 4445.5,4814C 4352.35,4732.93 4259.02,4652.1 4165.5,4571.5C 3974.36,4707.54 3764.02,4802.88 3534.5,4857.5C 3534.5,4981.83 3534.5,5106.17 3534.5,5230.5C 3261.17,5230.5 2987.83,5230.5 2714.5,5230.5C 2714.5,5106.17 2714.5,4981.83 2714.5,4857.5C 2541.3,4816.88 2377.96,4751.88 2224.5,4662.5C 2138.51,4751.99 2052.68,4841.66 1967,4931.5C 1769.33,4743.17 1571.67,4554.83 1374,4366.5C 1373.33,4365.83 1373.33,4365.17 1374,4364.5C 1458.83,4275.67 1543.67,4186.83 1628.5,4098C 1539.98,3963.27 1470.64,3818.94 1420.5,3665C 1298.8,3673.6 1177.13,3682.76 1055.5,3692.5C 1034.02,3419.57 1013.35,3146.57 993.5,2873.5C 1113.95,2865.08 1234.28,2855.75 1354.5,2845.5C 1384.39,2650.16 1444.72,2464.83 1535.5,2289.5C 1445.17,2211 1354.83,2132.5 1264.5,2054C 1443.5,1847.67 1622.5,1641.33 1801.5,1435C 1803.98,1435.75 1806.31,1437.08 1808.5,1439C 1896,1515.17 1983.5,1591.33 2071,1667.5C 2265.18,1526.52 2479.68,1428.19 2714.5,1372.5C 2714.5,1254.5 2714.5,1136.5 2714.5,1018.5 Z M 2856.5,1159.5 C 3035.17,1159.5 3213.83,1159.5 3392.5,1159.5C 3392.5,1268.83 3392.5,1378.17 3392.5,1487.5C 3634.81,1528.84 3856.98,1618.51 4059,1756.5C 4134.7,1677.8 4210.03,1598.8 4285,1519.5C 4285.72,1518.55 4286.55,1518.38 4287.5,1519C 4416.68,1642.01 4545.68,1765.18 4674.5,1888.5C 4600.18,1966.65 4525.68,2044.65 4451,2122.5C 4449.49,2124.68 4447.99,2126.84 4446.5,2129C 4493.78,2194.36 4536.95,2262.53 4576,2333.5C 4643.73,2460.34 4694.73,2593.68 4729,2733.5C 4729.72,2734.06 4730.56,2734.39 4731.5,2734.5C 4842.13,2725.69 4952.79,2717.36 5063.5,2709.5C 5076.94,2887.83 5090.27,3066.16 5103.5,3244.5C 4990.92,3252.79 4878.42,3261.45 4766,3270.5C 4739.95,3527.15 4659.79,3765.15 4525.5,3984.5C 4611.5,4059.5 4697.5,4134.5 4783.5,4209.5C 4666.85,4344.65 4550.02,4479.65 4433,4614.5C 4345.7,4539.54 4258.7,4464.21 4172,4388.5C 4060.92,4478.34 3940.09,4553.51 3809.5,4614C 3676.68,4674.16 3538.35,4716.83 3394.5,4742C 3392.5,4857.62 3391.84,4973.46 3392.5,5089.5C 3213.83,5089.5 3035.17,5089.5 2856.5,5089.5C 2857.16,4973.46 2856.5,4857.62 2854.5,4742C 2653.42,4707.54 2465.08,4638.87 2289.5,4536C 2259.99,4517.82 2230.49,4499.65 2201,4481.5C 2121.54,4563.97 2042.37,4646.8 1963.5,4730C 1962.83,4730.67 1962.17,4730.67 1961.5,4730C 1832.32,4606.99 1703.32,4483.82 1574.5,4360.5C 1653.68,4277.82 1732.68,4194.98 1811.5,4112C 1677.12,3932.72 1581.45,3733.88 1524.5,3515.5C 1523.17,3515.17 1521.83,3514.83 1520.5,3514.5C 1408.86,3523.29 1297.2,3531.63 1185.5,3539.5C 1172.02,3361.18 1158.69,3182.84 1145.5,3004.5C 1257.5,2996.17 1369.5,2987.83 1481.5,2979.5C 1500.47,2756.76 1561.64,2546.43 1665,2348.5C 1681.83,2318.17 1698.67,2287.83 1715.5,2257.5C 1631.87,2185.21 1548.54,2112.54 1465.5,2039.5C 1581.61,1904.56 1698.27,1770.06 1815.5,1636C 1816.5,1635.33 1817.5,1635.33 1818.5,1636C 1900.69,1707.69 1983.02,1779.19 2065.5,1850.5C 2126.03,1801.9 2189.03,1756.73 2254.5,1715C 2440.11,1600.28 2640.77,1524.45 2856.5,1487.5C 2856.5,1378.17 2856.5,1268.83 2856.5,1159.5 Z"/></g>
<g><path style="opacity:0.993" fill="#04ab86" d="M 3077.5,1973.5 C 3354.47,1965.69 3603.14,2044.53 3823.5,2210C 3834,2218.34 3844.34,2226.84 3854.5,2235.5C 3821.44,2269.56 3787.78,2302.89 3753.5,2335.5C 3538.7,2168.54 3295.03,2096.7 3022.5,2120C 2757.15,2150.74 2536.65,2265.57 2361,2464.5C 2188.56,2668.13 2106.89,2904.13 2116,3172.5C 2130.08,3412.58 2216.41,3621.91 2375,3800.5C 2563.17,4003.98 2796.33,4114.82 3074.5,4133C 3351.78,4142.7 3593.78,4056.37 3800.5,3874C 3999.54,3690.07 4110.04,3462.23 4132,3190.5C 4146.69,2897.62 4054.86,2644.45 3856.5,2431C 3889.5,2398 3922.5,2365 3955.5,2332C 3961.43,2335.9 3966.93,2340.74 3972,2346.5C 4158.36,2553.7 4259.36,2797.36 4275,3077.5C 4283.45,3378.2 4191.78,3643.2 4000,3872.5C 3822.89,4076.2 3601.06,4204.37 3334.5,4257C 3067.62,4303.88 2814.62,4263.88 2575.5,4137C 2351.81,4012.97 2185.64,3835.14 2077,3603.5C 1977.38,3380.96 1949.38,3149.63 1993,2909.5C 2048.21,2636.58 2182.04,2411.41 2394.5,2234C 2593.21,2073.34 2820.88,1986.51 3077.5,1973.5 Z"/></g>
<g><path style="opacity:0.993" fill="#0c4a4c" d="M 3103.5,2513.5 C 3294.68,2511.37 3454.52,2580.37 3583,2720.5C 3682.94,2836.44 3733.78,2971.44 3735.5,3125.5C 3688.17,3125.5 3640.83,3125.5 3593.5,3125.5C 3591.03,2983.09 3537.03,2864.59 3431.5,2770C 3319.69,2676.64 3191.35,2640.64 3046.5,2662C 2904.97,2689.13 2796.47,2763.63 2721,2885.5C 2654.18,3002.26 2638.51,3125.59 2674,3255.5C 2714.64,3385.8 2795.48,3482.3 2916.5,3545C 2982.36,3577.38 3052.03,3593.55 3125.5,3593.5C 3125.5,3640.83 3125.5,3688.17 3125.5,3735.5C 2966.79,3733.9 2828.79,3680.4 2711.5,3575C 2567.55,3437.57 2502.39,3269.07 2516,3069.5C 2536.22,2886.49 2619.38,2739.99 2765.5,2630C 2866.41,2557.64 2979.08,2518.81 3103.5,2513.5 Z"/></g>
</svg>
