
<svg xmlns="http://www.w3.org/2000/svg" version="1.1" xmlns:xlink="http://www.w3.org/1999/xlink" xmlns:svgjs="http://svgjs.com/svgjs" width="512" height="512" x="0" y="0" viewBox="0 0 60 60" style="enable-background:new 0 0 512 512" xml:space="preserve" class=""><g transform="matrix(0.7199999999999999,0,0,0.7199999999999999,8.448608322143556,8.428167617321034)"><path fill="#ffffff" d="M15.494 59.47a.5.5 0 0 1-.263-.925l15.718-9.729L12.612 59.4a.5.5 0 0 1-.511-.859l14.043-8.6L9.81 59.368a.5.5 0 0 1-.514-.857l22.087-13.686L7.977 58.339a.5.5 0 0 1-.512-.859l20.313-12.486L7.306 56.813a.5.5 0 0 1-.51-.86L20.22 47.8 7.279 55.271a.5.5 0 0 1-.508-.86l8.816-5.326-8.308 4.8a.5.5 0 0 1-.513-.858l24.916-15.45L7.279 51.662a.5.5 0 0 1-.513-.857l25.808-16.04-25.3 14.6a.5.5 0 0 1-.507-.861L8.82 47.27l-1.546.893a.5.5 0 0 1-.512-.858l22.83-14.081L7.278 46.106a.5.5 0 0 1-.511-.858l21.775-13.406L7.277 44.119a.5.5 0 0 1-.512-.858l23.262-14.367-22.75 13.134a.5.5 0 0 1-.508-.86l10.8-6.537-10.29 5.94a.5.5 0 0 1-.511-.858l19.303-11.839L7.276 38.726a.5.5 0 0 1-.511-.859L24.972 26.7 7.276 36.918a.5.5 0 0 1-.512-.858L25.98 24.186l-18.7 10.8a.5.5 0 0 1-.515-.856L27.532 21.1 7.275 32.792a.5.5 0 0 1-.511-.858l9.8-6.018-9.29 5.362a.5.5 0 0 1-.514-.857l13.062-8.141-12.548 7.244a.5.5 0 0 1-.512-.858l6.345-3.912-5.833 3.367a.5.5 0 0 1-.514-.856l8.558-5.345-8.045 4.644a.5.5 0 0 1-.515-.856l6.724-4.208-6.209 3.584a.5.5 0 0 1-.519-.854l8.989-5.749-8.47 4.89a.5.5 0 0 1-.519-.853l6.557-4.2L7.272 21.8a.5.5 0 0 1-.532-.845l10.206-6.985-9.674 5.585a.5.5 0 0 1-.522-.855l2.832-1.84-2.31 1.333a.5.5 0 0 1-.528-.848l3.4-2.273-2.873 1.658a.5.5 0 0 1-.53-.846l2.268-1.539-1.738 1a.5.5 0 0 1-.545-.836l3.346-2.451-1.2.692a.5.5 0 0 1-.587-.8l4.469-4.083a.5.5 0 0 1 .225-.588l1.183-.679a.5.5 0 0 1 .587.8l-2.4 2.191L17.535 6.6a.5.5 0 0 1 .546.836l-3.346 2.449L20.429 6.6a.5.5 0 0 1 .53.846L18.69 8.984 22.824 6.6a.5.5 0 0 1 .529.848l-3.4 2.271 5.4-3.119a.5.5 0 0 1 .523.851L23.052 9.29l4.664-2.69a.5.5 0 0 1 .532.844l-10.209 6.99L31.612 6.6a.5.5 0 0 1 .52.853l-6.55 4.2L34.327 6.6a.5.5 0 0 1 .52.853L25.853 13.2 37.3 6.6a.5.5 0 0 1 .516.856l-6.726 4.209L39.859 6.6a.5.5 0 0 1 .515.856l-8.56 5.344 10.743-6.2a.5.5 0 0 1 .512.858l-6.334 3.905L44.986 6.6a.5.5 0 0 1 .515.857L32.437 15.6l15.587-9a.5.5 0 0 1 .512.858l-9.792 6.013L50.646 6.6a.5.5 0 0 1 .516.856L30.381 20.49 54.445 6.6a.5.5 0 0 1 .513.858L35.757 19.32 57.166 6.96a.5.5 0 0 1 .512.858l-18.21 11.167L58.33 8.1a.5.5 0 0 1 .512.858L39.528 20.8 58.72 9.717a.5.5 0 0 1 .509.86L48.446 17.1l10.274-5.93a.5.5 0 0 1 .512.858L35.97 26.4l22.75-13.135a.5.5 0 0 1 .511.858l-21.766 13.4L58.72 15.252a.5.5 0 0 1 .512.858L36.392 30.2 58.72 17.313a.5.5 0 0 1 .508.861l-2.054 1.233 1.546-.892a.5.5 0 0 1 .513.857l-25.8 16.036 25.288-14.6a.5.5 0 0 1 .513.857L34.317 37.116l24.4-14.089a.5.5 0 0 1 .509.861l-8.817 5.326 8.308-4.8a.5.5 0 0 1 .509.86L45.8 33.437l12.92-7.461a.5.5 0 0 1 .511.858l-20.3 12.48L58.72 27.888a.5.5 0 0 1 .513.857l-22.09 13.688L58.72 29.976a.5.5 0 0 1 .511.859l-14.062 8.617 13.551-7.823a.5.5 0 0 1 .512.857l-15.71 9.724 15.2-8.773a.5.5 0 0 1 .514.856L43.6 44.053l15.12-8.728a.5.5 0 0 1 .513.858l-11.027 6.849 10.514-6.069a.5.5 0 0 1 .515.856L48.2 44.737l10.52-6.075a.5.5 0 0 1 .522.852l-14.9 9.7 14.379-8.3a.5.5 0 0 1 .514.857l-3.108 1.939 2.593-1.5a.5.5 0 0 1 .515.856l-2.947 1.849 2.432-1.4a.5.5 0 0 1 .526.849l-9.146 6.06 7.069-4.081a.5.5 0 0 1 .524.85l-3.933 2.582a.5.5 0 0 1 .491.867l-3.606 2.492a.5.5 0 0 1 .249.875l-3.982 3.4a.85.85 0 0 1 .025.039.5.5 0 0 1-.183.683l-2.171 1.249a.5.5 0 0 1-.574-.814l2.081-1.774-4.523 2.608a.5.5 0 0 1-.534-.843l2.495-1.724L39.08 59.4a.5.5 0 0 1-.524-.85l3.9-2.56-5.905 3.41a.5.5 0 0 1-.527-.849l9.147-6.061L33.2 59.4a.5.5 0 0 1-.515-.856l2.948-1.85-4.687 2.706a.5.5 0 0 1-.514-.857l3.094-1.928L28.7 59.4a.5.5 0 0 1-.522-.851l14.9-9.706L24.8 59.4a.5.5 0 0 1-.516-.856l11.036-6.917L21.852 59.4a.5.5 0 0 1-.514-.857L32.359 51.7l-13.343 7.7a.5.5 0 0 1-.515-.856l15.633-9.761L15.744 59.4a.5.5 0 0 1-.25.07z" data-original="#e2e2ed" class=""></path><path fill="#2F3D5F" d="M46.815 57.608a.5.5 0 0 1-.342-.864l1.65-1.556-.843.487a.5.5 0 0 1-.563-.822l4.888-3.94-4.325 2.5a.5.5 0 0 1-.551-.832l1.307-.981-.756.435a.5.5 0 0 1-.564-.821l.7-.571-.141.081a.5.5 0 0 1-.637-.748l1.006-1.239a.51.51 0 0 1-.469-.249.5.5 0 0 1 .182-.682l2.049-1.183a.5.5 0 0 1 .638.748L49.13 48.5l3.293-1.9a.5.5 0 0 1 .564.821l-.705.571 2.412-1.392a.5.5 0 0 1 .551.832l-1.306.981 2.754-1.59a.5.5 0 0 1 .564.823l-5.56 4.48a.5.5 0 0 1 .29.189.5.5 0 0 1-.058.663l-3.966 3.738a.5.5 0 0 1-.25.453l-.648.374a.489.489 0 0 1-.25.065z" data-original="#aaaabc" class=""></path><path fill="#2F3D5F" d="M9.157 15.388a.5.5 0 0 1-.41-.215.5.5 0 0 1 .092-.671l1.1-.911-1.96 1.133a.5.5 0 0 1-.585-.8l3.3-2.986-4.643 2.678a.5.5 0 0 1-.578-.81L9.282 9.5 4.1 12.493a.5.5 0 0 1-.562-.824l3.585-2.851-3.2 1.848a.5.5 0 0 1-.551-.832L6.875 7.2a.5.5 0 0 1-.08-.8l3.326-3.06a.5.5 0 0 1 .247-.49l.81-.467a.5.5 0 0 1 .589.8l-.967.888 1.019-.588a.5.5 0 0 1 .551.832l-1.8 1.354 1.889-1.09a.5.5 0 0 1 .562.824L9.435 8.258 13.3 6.027a.5.5 0 0 1 .578.811l-3.809 3.305 4.211-2.432a.5.5 0 0 1 .585.8l-3.3 2.986 3.044-1.758a.5.5 0 0 1 .569.819L13.681 11.8a.5.5 0 0 1 .215.932L9.407 15.32a.493.493 0 0 1-.25.068z" data-original="#ba2550" class=""></path><path fill="#2F3D5F" d="M3.774 12.138a.5.5 0 0 1-.3-.9l1.588-1.217L2.505 11.5a.5.5 0 0 1-.552-.831L5 8.357l-3.42 1.974a.5.5 0 0 1-.541-.839L2.7 8.3l-1.407.812a.5.5 0 0 1-.538-.842l.605-.425a.5.5 0 0 1-.53-.84l2.27-1.76-.925.534a.5.5 0 0 1-.564-.822L3.3 3.605a.465.465 0 0 1-.12-.14.5.5 0 0 1 .182-.683L6.814.788a.5.5 0 0 1 .564.822l-.056.045L9 .685a.5.5 0 0 1 .556.828L7.288 3.271l3.18-1.835a.5.5 0 0 1 .538.841l-.6.419.684-.393a.5.5 0 0 1 .541.839L9.963 4.337l1.442-.832a.5.5 0 0 1 .552.831L8.914 6.644l2.291-1.323a.5.5 0 0 1 .554.829l-1.59 1.219.149-.086a.5.5 0 1 1 .5.865L4.024 12.07a.493.493 0 0 1-.25.068z" data-original="#e02b4e" class=""></path><g fill="#262626"><path d="M1.9 11.58c1.42.932 2.937 1.676 4.373 2.618v38.831c0 1.862-.433 4.4 1.275 5.666 11.631 1.882 24.212.09 36.136.681C49.944 57.4 54.04 50.29 58.836 46c2.316-8.431.193-18.281.89-27.157-.545-3.7 1.344-8.544-1.276-11.539-14.271-1.864-29.382-.085-43.922-.68C10.378-6.5-4.295 5.5 1.9 11.58zm3.143.5a9.575 9.575 0 0 0 7.217-6.497c2.258 2.92 2.625 5.768-.628 8.061-2.132 2.233-4.516-.661-6.586-1.568zm42.681 38.76c-.674-5.1 5.337-3.008 8.389-3.509l-8.388 8.387c.06-1.618-.001-3.256-.001-4.878zM28.62 7.375c9.322.2 18.785-.394 28.038.221 2.208.96 1.618 4.395 1.618 6.328-.026 10.026.039 20.054 0 30.077a2.732 2.732 0 0 1-1.176 2.346c-3.5 1.1-10.276-1.637-10.821 3.881-.5 2.648 1.439 7.67-2.2 8.4-11.058.012-22.129-.009-33.191 0-2.2.139-3.51-1.779-3.161-3.884v-39.75c1.783.887 3.717.014 5.122-1.167 3.6 4.341 5.586 2.767 1.018-.939 1.547-1.47 2.482-3.638 1.11-5.51zM1.976 6.732A8.1 8.1 0 0 1 6.4 1.818C11.68-.339 12.026 6.75 8.74 9.2 6.1 12.456.427 11.78 1.976 6.732z" fill="#2F3D5F" data-original="#262626" class=""></path><path d="M13.734 23.943c0-.528-.62-.467-1-.468a2.343 2.343 0 0 1 .656-2.087c.069-.052.235-.147-.07.034 1.409-1.413-1.4-1-1.656.179-.362.732-.965 2.87.27 2.925.601-.033 1.613.196 1.8-.583zM16.3 22.759c-.977 3.286 4.524.732 1.424.879a2.737 2.737 0 0 1 .809-2.538c.181-.091.29-.342.05-.422-1.177-.263-2.145 1.022-2.283 2.081zM52.316 38.948c-.209.591.572.538.954.525a4.112 4.112 0 0 1-.141 1.463c-.041.565-1.252.929-.7 1.451 2.928.513 3.309-5.876-.113-3.439zM49.466 38.689c-.956-.278-3.48.627-1.191.622a3.174 3.174 0 0 1-1 2.883c1.701.76 3.194-2.506 2.191-3.505zM13.711 28.385h38c.512 0 1.55-.77.578-.77h-38c-.512 0-1.55.77-.578.77zM18.958 33.57c-20.482 1.124 29.163.9 32.765.86.571 0 1.529-.86.554-.86zM40.068 39.484h-26c-.817 0-1.121 1.032-.136 1.032h26c.817 0 1.121-1.032.136-1.032z" fill="#2F3D5F" data-original="#262626" class=""></path></g></g></svg>