<?xml version="1.0" encoding="UTF-8"?>
<!DOCTYPE svg PUBLIC "-//W3C//DTD SVG 1.1//EN" "http://www.w3.org/Graphics/SVG/1.1/DTD/svg11.dtd">
<svg xmlns="http://www.w3.org/2000/svg" version="1.1" width="1667px" height="1667px" style="shape-rendering:geometricPrecision; text-rendering:geometricPrecision; image-rendering:optimizeQuality; fill-rule:evenodd; clip-rule:evenodd" xmlns:xlink="http://www.w3.org/1999/xlink">
<g><path style="opacity:0.983" fill="#8499b5" d="M 804.5,276.5 C 823.17,276.333 841.836,276.5 860.5,277C 864.333,278.167 866.833,280.667 868,284.5C 868.5,421.5 868.667,558.5 868.5,695.5C 869.552,695.649 870.552,695.483 871.5,695C 905.833,660.667 940.167,626.333 974.5,592C 978.197,590.101 981.864,590.101 985.5,592C 998.667,605.167 1011.83,618.333 1025,631.5C 1025.67,634.5 1025.67,637.5 1025,640.5C 963.194,703.306 901.028,765.806 838.5,828C 833.416,830.321 828.75,829.655 824.5,826C 762.972,764.806 701.806,703.306 641,641.5C 638.914,637.333 639.247,633.333 642,629.5C 654.895,615.936 668.395,603.103 682.5,591C 686.12,590.159 689.454,590.826 692.5,593C 726.5,627 760.5,661 794.5,695C 795.449,695.617 796.282,695.451 797,694.5C 797.333,557.5 797.667,420.5 798,283.5C 799.018,279.985 801.185,277.652 804.5,276.5 Z"/></g>
<g><path style="opacity:0.995" fill="#2f3d5f" d="M 289.5,832.5 C 377.501,832.333 465.501,832.5 553.5,833C 555.5,834 557.5,835 559.5,836C 603,879.5 646.5,923 690,966.5C 690.743,968.441 690.576,970.274 689.5,972C 602.5,972.333 515.5,972.667 428.5,973C 422.471,975.691 418.638,980.191 417,986.5C 416.333,1069.5 416.333,1152.5 417,1235.5C 419.287,1243.9 424.787,1248.4 433.5,1249C 699.5,1249.67 965.5,1249.67 1231.5,1249C 1239.47,1248.7 1244.97,1244.87 1248,1237.5C 1248.67,1152.83 1248.67,1068.17 1248,983.5C 1245.74,978.243 1241.91,974.743 1236.5,973C 1149.83,972.667 1063.17,972.333 976.5,972C 975.426,971.261 974.759,970.261 974.5,969C 1018.82,923.346 1063.82,878.346 1109.5,834C 1198.44,832.341 1287.44,832.008 1376.5,833C 1382.36,834.859 1386.19,838.693 1388,844.5C 1388.67,1022.17 1388.67,1199.83 1388,1377.5C 1385.83,1382.33 1382.33,1385.83 1377.5,1388C 1014.5,1388.67 651.5,1388.67 288.5,1388C 282.48,1385.32 278.647,1380.82 277,1374.5C 276.333,1198.5 276.333,1022.5 277,846.5C 278.954,839.72 283.12,835.053 289.5,832.5 Z"/></g>
</svg>
